HIERARCHY
ROOT RootJoint
{
    OFFSET   0.000000   0.000000   0.000000
    CHANNELS 6 Xposition Yposition Zposition Xrotation Yrotation Zrotation
    JOINT pelvis_lowerback
    {
        OFFSET   0.000000   0.093605   0.000000
        CHANNELS 3 Xrotation Yrotation Zrotation
        JOINT lowerback_torso
        {
            OFFSET   0.000000   0.100000   0.000000
            CHANNELS 3 Xrotation Yrotation Zrotation
            JOINT torso_head
            {
                OFFSET   0.000000   0.282350   0.000000
                CHANNELS 3 Xrotation Yrotation Zrotation
                End Site
                {
                    OFFSET   0.000000   0.192650   0.000000
                }
            }
            JOINT rTorso_Clavicle
            {
                OFFSET  -0.001000   0.157500   0.000000
                CHANNELS 3 Xrotation Yrotation Zrotation
                JOINT rShoulder
                {
                    OFFSET  -0.117647   0.000000   0.000000
                    CHANNELS 3 Xrotation Yrotation Zrotation
                    JOINT rElbow
                    {
                        OFFSET  -0.245000   0.000000   0.000000
                        CHANNELS 3 Xrotation Yrotation Zrotation
                        JOINT rWrist
                        {
                            OFFSET  -0.240000   0.000000   0.000000
                            CHANNELS 3 Xrotation Yrotation Zrotation
                            End Site
                            {
                                OFFSET  -0.116353  -0.002500   0.000000
                            }
                        }
                    }
                }
            }
            JOINT lTorso_Clavicle
            {
                OFFSET   0.001000   0.157500   0.000000
                CHANNELS 3 Xrotation Yrotation Zrotation
                JOINT lShoulder
                {
                    OFFSET   0.117647   0.000000   0.000000
                    CHANNELS 3 Xrotation Yrotation Zrotation
                    JOINT lElbow
                    {
                        OFFSET   0.245000   0.000000   0.000000
                        CHANNELS 3 Xrotation Yrotation Zrotation
                        JOINT lWrist
                        {
                            OFFSET   0.240000   0.000000   0.000000
                            CHANNELS 3 Xrotation Yrotation Zrotation
                            End Site
                            {
                                OFFSET   0.116353  -0.002500   0.000000
                            }
                        }
                    }
                }
            }
        }
    }
    JOINT rHip
    {
        OFFSET  -0.100000  -0.051395   0.000000
        CHANNELS 3 Xrotation Yrotation Zrotation
        JOINT rKnee
        {
            OFFSET   0.000000  -0.410000   0.000000
            CHANNELS 3 Xrotation Yrotation Zrotation
            JOINT rAnkle
            {
                OFFSET   0.000000  -0.390000   0.000000
                CHANNELS 3 Xrotation Yrotation Zrotation
                JOINT rToeJoint
                {
                    OFFSET   0.000000  -0.050000   0.130000
                    CHANNELS 3 Xrotation Yrotation Zrotation
                    End Site
                    {
                        OFFSET  -0.010000   0.002000   0.060000
                    }
                }
            }
        }
    }
    JOINT lHip
    {
        OFFSET   0.100000  -0.051395   0.000000
        CHANNELS 3 Xrotation Yrotation Zrotation
        JOINT lKnee
        {
            OFFSET   0.000000  -0.410000   0.000000
            CHANNELS 3 Xrotation Yrotation Zrotation
            JOINT lAnkle
            {
                OFFSET   0.000000  -0.390000   0.000000
                CHANNELS 3 Xrotation Yrotation Zrotation
                JOINT lToeJoint
                {
                    OFFSET   0.000000  -0.050000   0.130000
                    CHANNELS 3 Xrotation Yrotation Zrotation
                    End Site
                    {
                        OFFSET   0.010000   0.002000   0.060000
                    }
                }
            }
        }
    }
}
MOTION
Frames: 15
Frame Time:   0.008333
 -2.342828   0.908944   4.072492  -3.661851  -1.292926   0.507590   8.496294  -0.536484  -1.159274   9.077194  -1.515180   2.095526   1.143113  -1.262235   1.635359   1.649299   5.840876  11.968155  12.370614  16.169096  42.758010  -0.000510  18.534797  -0.000043  15.383746   3.051982   3.750947   3.187953  -4.551367  -9.957587  16.031809 -17.759223 -43.875397   0.000052 -21.827585  -0.000110   9.666063  -3.495763  -6.500440  -0.382251  -0.943946  -4.991155  22.565940  -0.003134  -0.005381 -13.749339  -3.385380   2.226751  -6.457894  -0.001742   0.005269  12.349137  -1.768304  -0.392822   3.175379   0.000083  -0.000705 -12.597390   0.214830   2.873850   1.685785  -0.000082  -0.000597
 -2.343105   0.908320   4.074560  -3.748146  -1.501502   0.571102   8.728042  -0.512771  -1.200390   9.090560  -1.453573   2.062492   1.118584  -1.217539   1.690020   1.626397   5.874412  11.882274  12.355917  16.150876  42.897735  -0.000633  18.372847  -0.000045  15.333512   3.075641   3.674184   3.122355  -4.552099  -9.906112  15.909036 -17.639184 -43.913910   0.000126 -21.708406  -0.000057   9.663218  -3.522661  -6.451400  -0.845821  -0.986445  -5.031657  23.888626  -0.004322  -0.007251 -14.084607  -3.476802   2.126252  -6.644447  -0.001568   0.004844  12.510160  -1.716908  -0.509720   3.407647   0.000069  -0.000843 -12.978442   0.131698   2.962327   1.708842  -0.000078  -0.000520
 -2.343459   0.907652   4.076782  -3.851981  -1.701413   0.627281   8.959998  -0.501952  -1.234443   9.127199  -1.399639   2.032482   1.100021  -1.174810   1.738756   1.613682   5.900083  11.802350  12.348973  16.127861  43.029636  -0.000738  18.216697  -0.000057  15.286609   3.077205   3.614051   3.060340  -4.551142  -9.850308  15.796631 -17.521460 -43.939506   0.000190 -21.592758  -0.000040   9.665132  -3.520594  -6.379124  -1.288925  -1.039844  -5.063154  25.226652  -0.005431  -0.008734 -14.399086  -3.573454   2.028138  -6.807943  -0.001401   0.004436  12.694238  -1.671182  -0.613784   3.646862   0.000046  -0.000955 -13.336561   0.052276   3.046110   1.716839  -0.000067  -0.000430
 -2.343881   0.906945   4.079160  -3.949701  -1.891546   0.677815   9.175704  -0.499429  -1.262524   9.169975  -1.355604   2.008491   1.084329  -1.135022   1.783886   1.611381   5.915220  11.728175  12.349536  16.099768  43.154305  -0.000821  18.067424  -0.000082  15.242799   3.062181   3.567798   3.004944  -4.547138  -9.793766  15.694818 -17.407969 -43.959503   0.000239 -21.482887  -0.000044   9.669177  -3.504505  -6.301869  -1.697949  -1.091671  -5.089353  26.507303  -0.006243  -0.009594 -14.692137  -3.663975   1.935579  -6.948551  -0.001237   0.004005  12.880543  -1.628229  -0.706230   3.884571   0.000018  -0.001031 -13.670053  -0.022801   3.124650   1.724238  -0.000058  -0.000357
 -2.344366   0.906201   4.081679  -4.032673  -2.077310   0.724273   9.373625  -0.501748  -1.285918   9.211920  -1.319012   1.989527   1.069477  -1.097952   1.826104   1.616384   5.922668  11.659159  12.355328  16.068603  43.272021  -0.000883  17.925498  -0.000115  15.201508   3.035483   3.532225   2.955255  -4.540964  -9.738052  15.602044 -17.299569 -43.976047   0.000274 -21.379155  -0.000062   9.674208  -3.481428  -6.225033  -2.075332  -1.139591  -5.111601  27.715280  -0.006782  -0.009980 -14.966152  -3.746321   1.849207  -7.081702  -0.001089   0.003612  13.062260  -1.587122  -0.789927   4.115880  -0.000013  -0.001079 -13.981212  -0.093483   3.197973   1.731518  -0.000050  -0.000298
 -2.344911   0.905421   4.084324  -4.097703  -2.262818   0.767449   9.555027  -0.506937  -1.305336   9.250827  -1.287858   1.974527   1.054986  -1.063390   1.865677   1.625667   5.925270  11.594812  12.364173  16.036292  43.382759  -0.000924  17.791328  -0.000149  15.162361   3.001568   3.504075   2.910033  -4.533715  -9.684001  15.516829 -17.196856 -43.990036   0.000295 -21.281652  -0.000090   9.679685  -3.455016  -6.149816  -2.424566  -1.183783  -5.130043  28.848959  -0.007106  -0.010048 -15.223654  -3.820962   1.768887  -7.223383  -0.000965   0.003303  13.237018  -1.547677  -0.866727   4.338379  -0.000046  -0.001111 -14.272022  -0.159954   3.266313   1.738538  -0.000044  -0.000250
 -2.345515   0.904608   4.087086  -4.143572  -2.450667   0.807733   9.721577  -0.513842  -1.321192   9.286105  -1.260786   1.962740   1.040861  -1.031163   1.902799   1.637028   5.925077  11.534732  12.374476  16.004205  43.486568  -0.000947  17.665091  -0.000183  15.125082   2.963960   3.480644   2.868284  -4.526227  -9.632117  15.437998 -17.100144 -44.002022   0.000304 -21.190313  -0.000124   9.685295  -3.427494  -6.076436  -2.748656  -1.224806  -5.144480  29.910621  -0.007269  -0.009909 -15.466957  -3.888699   1.694356  -7.387323  -0.000866   0.003105  13.403894  -1.509846  -0.937725   4.550995  -0.000077  -0.001132 -14.544135  -0.222443   3.329969   1.745208  -0.000038  -0.000212
 -2.346255   0.903784   4.089954  -4.216460  -2.772282   0.822887   9.964378  -0.480343  -1.336419   9.285176  -1.191176   1.941003   1.024195  -0.950788   1.898757   1.645340   5.912655  11.418867  12.378771  15.989525  43.653613  -0.001051  17.500829  -0.000285  15.054622   2.999525   3.449258   2.795030  -4.491559  -9.573744  15.304021 -16.898368 -44.048745   0.000421 -21.035958  -0.000040   9.685476  -3.447646  -6.003534  -3.213658  -1.316615  -5.139219  31.250370  -0.008958  -0.012281 -15.800449  -3.995091   1.639088  -6.815763  -0.000540  -0.000314  13.677466  -1.390349  -1.009559   4.682459  -0.000099  -0.001115 -14.941426  -0.269152   3.396473   1.754915  -0.000035  -0.000188
 -2.347115   0.902934   4.092976  -4.292539  -3.109557   0.816296  10.205225  -0.458269  -1.341943   9.298864  -1.126231   1.924725   1.009662  -0.874261   1.892292   1.662956   5.891433  11.302856  12.390911  15.968070  43.808960  -0.001121  17.343620  -0.000401  14.986260   3.025533   3.433140   2.733877  -4.449117  -9.506345  15.187533 -16.698297 -44.083397   0.000509 -20.885190  -0.000042   9.690451  -3.432010  -5.914564  -3.695492  -1.420938  -5.111865  32.536422  -0.010489  -0.014180 -16.110877  -4.103146   1.584476  -6.301882  -0.000409  -0.002891  13.975723  -1.280593  -1.059749   4.796913  -0.000121  -0.001102 -15.325584  -0.314325   3.459537   1.750730  -0.000026  -0.000141
 -2.348071   0.902040   4.096145  -4.368188  -3.452563   0.796737  10.440384  -0.445358  -1.342516   9.323421  -1.070753   1.914052   0.997278  -0.803088   1.886115   1.688025   5.862646  11.188859  12.409603  15.940650  43.951972  -0.001164  17.193325  -0.000517  14.921489   3.034441   3.424727   2.681622  -4.404211  -9.433556  15.084623 -16.505243 -44.109593   0.000568 -20.741260  -0.000100   9.697854  -3.395475  -5.824019  -4.182593  -1.523610  -5.080057  33.725699  -0.011523  -0.015365 -16.404266  -4.211196   1.530675  -5.879503  -0.000363  -0.004487  14.283141  -1.178931  -1.096299   4.911324  -0.000145  -0.001108 -15.687346  -0.357862   3.519418   1.745253  -0.000019  -0.000100
 -2.349115   0.901090   4.099465  -4.442981  -3.793597   0.769728  10.668167  -0.441615  -1.340815   9.356189  -1.025587   1.907674   0.986822  -0.736945   1.880562   1.719251   5.827686  11.078561  12.433601  15.908556  44.084276  -0.001186  17.049796  -0.000624  14.860183   3.026969   3.422152   2.635375  -4.359508  -9.358494  14.992092 -16.321184 -44.129297   0.000604 -20.604968  -0.000185   9.706463  -3.347240  -5.734582  -4.668227  -1.619068  -5.049196  34.824305  -0.012077  -0.015903 -16.678854  -4.311828   1.479777  -5.494584  -0.000361  -0.005507  14.596049  -1.084173  -1.123129   5.030285  -0.000171  -0.001127 -16.025677  -0.399524   3.575937   1.739924  -0.000012  -0.000067
 -2.350246   0.900079   4.102943  -4.516007  -4.128241   0.738305  10.886801  -0.446153  -1.337758   9.394577  -0.990321   1.904419   0.977979  -0.675448   1.875579   1.755422   5.787871  10.973025  12.461780  15.872985  44.207262  -0.001189  16.912966  -0.000717  14.802123   3.005571   3.425045   2.593317  -4.316465  -9.283569  14.907714 -16.147125 -44.144194   0.000621 -20.476620  -0.000278   9.715581  -3.292993  -5.646717  -5.148311  -1.706763  -5.021988  35.839228  -0.012229  -0.015938 -16.935694  -4.405478   1.431661  -5.142567  -0.000377  -0.006090  14.912905  -0.995395  -1.142162   5.154780  -0.000201  -0.001153 -16.341317  -0.439218   3.629135   1.735035  -0.000008  -0.000042
 -2.351463   0.899003   4.106581  -4.586052  -4.453655   0.704317  11.094758  -0.457873  -1.333788   9.436177  -0.964086   1.903527   0.970404  -0.618247   1.871121   1.795357   5.744431  10.872883  12.493079  15.835021  44.322052  -0.001178  16.782793  -0.000792  14.747073   2.972953   3.433100   2.554246  -4.275861  -9.210390  14.829880 -15.983448 -44.155588   0.000624 -20.356243  -0.000365   9.808843  -3.245297  -5.558490  -5.620042  -1.786889  -4.999593  36.777095  -0.012065  -0.015602 -17.175890  -4.492657   1.386202  -4.820516  -0.000395  -0.006343  15.232616  -0.911947  -1.154316   5.284762  -0.000232  -0.001180 -16.635461  -0.476952   3.679158   1.730635  -0.000004  -0.000023
 -2.352918   0.897632   4.110299  -4.614420  -4.788749   0.569581  11.315085  -0.460463  -1.286670   9.386319  -0.919590   1.959943   0.948215  -0.538503   1.835020   1.813474   5.642453  10.749400  12.541361  15.747045  44.483575  -0.001142  16.660824  -0.000962  14.653954   2.997051   3.416742   2.475718  -4.189724  -9.127869  14.710133 -15.706176 -44.221480   0.000772 -20.184981  -0.000205   9.791609  -3.266454  -5.504412  -6.153855  -1.923539  -4.880336  37.580268  -0.011837  -0.015250 -17.448306  -4.660876   1.402992  -4.542008  -0.000604  -0.006682  15.520538  -0.692893  -1.045123   5.444299  -0.000298  -0.001121 -16.269483  -0.456893   3.671087   1.574046   0.000038   0.000219
 -2.354435   0.896590   4.114092  -4.629754  -5.173830   0.518135  11.533363  -0.452084  -1.327291   9.345676  -0.871048   1.988151   0.920059  -0.462828   1.797717   1.833741   5.546075  10.671817  12.587017  15.663964  44.646977  -0.001146  16.543213  -0.001084  14.561541   3.006629   3.391163   2.404692  -4.102824  -9.053139  14.605841 -15.433551 -44.264313   0.000845 -20.014187  -0.000144   9.784752  -3.236491  -5.406207  -6.724178  -2.037099  -4.858238  38.281597  -0.011436  -0.014849 -17.703369  -4.819084   1.417512  -4.283298  -0.000761  -0.006898  15.884280  -0.528608  -0.984310   5.415550  -0.000204  -0.000846 -16.620507  -0.454037   3.539179   1.238372  -0.000134   0.000842
